<?xml version="1.0" standalone="no"?>
<!DOCTYPE svg PUBLIC "-//W3C//DTD SVG 1.1//EN" "http://www.w3.org/Graphics/SVG/1.1/DTD/svg11.dtd" >
<svg>
<metadata>
Created by FontForge 20120731 at Wed Dec 25 16:26:19 2013
 By World Wide Web Server
 2002 PARACHUTE TYPE &#38; IMAGE CORP. All rights reserved. Designed by Panos Vassiliou. Based on DIN 1451 by the Deutsches Institut Normung 6  {www.parachute.gr}
</metadata>
<defs>
<font id="PFDinText-Bold" horiz-adv-x="497" >
  <font-face 
    font-family="PF Din Text"
    font-weight="700"
    font-stretch="normal"
    units-per-em="1000"
    panose-1="2 0 8 6 2 0 0 2 0 4"
    ascent="750"
    descent="-250"
    x-height="500"
    cap-height="693"
    bbox="-288 -251 1000 926"
    underline-thickness="80"
    underline-position="-150"
    unicode-range="U+0020-E001"
  />
<missing-glyph horiz-adv-x="1000" 
 />
    <glyph glyph-name=".notdef" horiz-adv-x="1000" 
 />
    <glyph glyph-name="space" unicode=" " horiz-adv-x="249" 
 />
    <glyph glyph-name="exclam" unicode="!" horiz-adv-x="266" 
d="M187 170l5 523h-117l5 -523h107zM74 0h119v112h-119v-112z" />
    <glyph glyph-name="quotedbl" unicode="&#x22;" horiz-adv-x="347" 
d="M292 504h-96v189h96v-189zM152 504h-96v189h96v-189z" />
    <glyph glyph-name="numbersign" unicode="#" horiz-adv-x="533" 
d="M510 402h-100l-15 -110h88v-86h-100l-29 -206h-101l29 206h-79l-29 -206h-101l29 206h-83v86h96l15 110h-84v86h97l29 205h97l-28 -205h82l29 205h97l-28 -205h89v-86zM310 402h-80l-16 -110h81z" />
    <glyph glyph-name="dollar" unicode="$" 
d="M477 200c0 -115 -79 -187 -183 -203v-107h-79v107c-72 8 -141 39 -201 99l70 92c39 -37 84 -66 131 -77v185c-99 27 -169 88 -169 196c0 106 68 188 169 204v69h79v-70c57 -9 115 -34 166 -74l-60 -97c-33 25 -71 43 -106 54v-174c102 -19 183 -88 183 -204zM215 425v150
c-31 -13 -55 -44 -55 -85c0 -35 26 -53 55 -65zM365 200c0 51 -31 68 -71 79v-168c43 12 71 42 71 89z" />
    <glyph glyph-name="percent" unicode="%" horiz-adv-x="660" 
d="M301 546c0 -52 -5 -84 -24 -108c-27 -35 -61 -48 -105 -48c-47 0 -83 18 -108 54c-17 24 -22 51 -22 102c0 45 2 87 41 123c19 17 46 33 89 33s69 -16 88 -33c39 -36 41 -78 41 -123zM540 693l-330 -694h-95l331 694h94zM619 147c0 -53 -5 -81 -24 -105
c-26 -35 -61 -52 -105 -52c-45 0 -81 18 -107 55c-16 23 -23 51 -23 102c0 44 2 86 41 122c19 17 46 33 89 33s69 -15 88 -32c39 -37 41 -79 41 -123zM216 542v3c0 33 -2 43 -7 52c-7 13 -20 20 -37 20c-18 0 -31 -7 -38 -21c-7 -12 -7 -26 -7 -50v-15c0 -14 1 -28 9 -39
c7 -12 19 -18 36 -18c13 0 23 4 29 11c15 14 15 38 15 57zM534 142v4c0 33 -2 43 -7 51c-7 14 -19 21 -37 21s-31 -7 -38 -22c-7 -11 -7 -25 -7 -49v-15c0 -14 1 -28 9 -40c8 -11 20 -17 36 -17c12 0 22 3 30 10c14 14 14 38 14 57z" />
    <glyph glyph-name="ampersand" unicode="&#x26;" horiz-adv-x="638" 
d="M630 0h-138l-44 62c-51 -43 -105 -66 -180 -66c-125 0 -228 80 -228 208c0 96 76 171 153 216c-23 35 -41 69 -41 120c0 93 57 160 156 160c92 0 160 -65 160 -148s-56 -131 -116 -168l98 -135c11 24 16 50 19 89h108c-4 -64 -17 -132 -56 -188zM361 552
c0 27 -22 48 -53 48s-45 -28 -45 -55c0 -25 15 -51 32 -75c37 20 66 43 66 82zM387 148l-131 185c-57 -31 -103 -70 -103 -127c0 -70 53 -107 115 -107c40 0 84 16 119 49z" />
    <glyph glyph-name="quoteright" unicode="&#x2019;" horiz-adv-x="249" 
d="M184 530l-119 -86v249h119v-163z" />
    <glyph glyph-name="parenleft" unicode="(" horiz-adv-x="285" 
d="M273 -8l-13 -98c-107 5 -176 87 -176 181v473c0 96 69 176 176 181l13 -98c-53 -8 -84 -33 -84 -76v-487c0 -43 31 -68 84 -76z" />
    <glyph glyph-name="parenright" unicode=")" horiz-adv-x="285" 
d="M217 75c0 -94 -68 -176 -175 -181l-14 98c53 8 85 33 85 76v487c0 43 -32 68 -85 76l14 98c107 -5 175 -85 175 -181v-473z" />
    <glyph glyph-name="asterisk" unicode="*" horiz-adv-x="356" 
d="M218 693v-84l68 39l41 -61l-73 -45l73 -45l-41 -62l-68 40v-84h-80v84l-68 -40l-41 62l73 45l-73 45l41 61l68 -39v84h80z" />
    <glyph glyph-name="plus" unicode="+" horiz-adv-x="593" 
d="M544 202h-200v-202h-96v202h-199v95h199v199h96v-199h200v-95z" />
    <glyph glyph-name="comma" unicode="," horiz-adv-x="249" 
d="M184 -74l-119 -86v273h119v-187z" />
    <glyph glyph-name="hyphen" unicode="-" horiz-adv-x="408" 
d="M361 198h-313v110h313v-110z" />
    <glyph glyph-name="period" unicode="." horiz-adv-x="249" 
d="M184 0h-119v114h119v-114z" />
    <glyph glyph-name="slash" unicode="/" horiz-adv-x="338" 
d="M335 698l-234 -698h-97l234 698h97z" />
    <glyph glyph-name="zero" unicode="0" horiz-adv-x="478" 
d="M443 198c0 -131 -99 -204 -204 -204s-203 73 -203 204v296c0 131 98 204 203 204s204 -73 204 -204v-296zM324 204v285c0 60 -34 92 -85 92s-85 -32 -85 -92v-285c0 -60 34 -93 85 -93s85 33 85 93z" />
    <glyph glyph-name="one" unicode="1" horiz-adv-x="478" 
d="M303 0h-119v559l-101 -74v129l109 79h111v-693z" />
    <glyph glyph-name="two" unicode="2" horiz-adv-x="478" 
d="M439 0h-409v105l268 331c14 17 21 39 21 61c0 15 -3 30 -11 43c-13 24 -40 41 -71 41c-47 0 -84 -32 -89 -97h-118c0 126 93 214 200 214c84 0 151 -44 186 -109c15 -28 22 -59 22 -91c0 -46 -15 -93 -43 -127l-204 -254h248v-117z" />
    <glyph glyph-name="three" unicode="3" horiz-adv-x="478" 
d="M432 210c0 -131 -96 -216 -217 -216c-96 0 -184 63 -205 194h117c17 -51 45 -77 94 -77s92 36 92 96c0 61 -42 96 -94 96h-65v107h57c60 0 95 36 95 84c0 49 -40 87 -89 87c-36 0 -73 -22 -85 -81h-117c8 112 97 198 198 198c128 0 211 -98 211 -202
c0 -49 -17 -103 -70 -138c54 -33 78 -93 78 -148z" />
    <glyph glyph-name="four" unicode="4" horiz-adv-x="478" 
d="M467 100h-54v-100h-119v100h-283v103l231 490h132l-230 -482h150v194h119v-194h54v-111z" />
    <glyph glyph-name="five" unicode="5" horiz-adv-x="478" 
d="M444 238c0 -60 -6 -95 -19 -126c-30 -70 -104 -118 -181 -118c-91 0 -195 51 -211 196h118c12 -53 42 -79 89 -79c45 0 65 20 76 48c9 27 9 58 9 86c0 71 -16 119 -88 119c-33 0 -57 -13 -81 -56h-109v385h383v-118h-270v-127c31 25 61 33 98 33c72 0 137 -40 167 -105
c14 -31 19 -70 19 -138z" />
    <glyph glyph-name="six" unicode="6" horiz-adv-x="478" 
d="M445 220c0 -161 -105 -226 -212 -226c-100 0 -199 75 -199 215c0 41 9 81 27 117l185 367h133l-142 -280h4c11 2 23 3 35 3c18 0 35 -2 50 -7c72 -21 119 -86 119 -189zM326 211c0 68 -40 100 -87 100s-87 -32 -87 -100s35 -100 87 -100c39 0 87 31 87 100z" />
    <glyph glyph-name="seven" unicode="7" horiz-adv-x="478" 
d="M456 584l-234 -584h-131l230 575h-154v-97h-119v215h408v-109z" />
    <glyph glyph-name="eight" unicode="8" horiz-adv-x="478" 
d="M457 206c0 -125 -101 -212 -218 -212s-218 87 -218 212c0 63 31 121 80 152c-39 32 -67 78 -67 135c0 115 89 205 205 205s206 -90 206 -205c0 -57 -28 -100 -68 -135c51 -33 80 -89 80 -152zM326 495c0 57 -42 86 -87 86s-87 -29 -87 -86c0 -56 42 -85 87 -85
s87 29 87 85zM338 207c0 55 -46 96 -99 96s-99 -41 -99 -96c0 -53 46 -96 99 -96s99 43 99 96z" />
    <glyph glyph-name="nine" unicode="9" horiz-adv-x="478" 
d="M444 483c0 -42 -9 -81 -27 -117l-186 -366h-132l141 280h-4c-28 -7 -60 -4 -85 4c-71 21 -118 85 -118 189c0 160 104 225 211 225c100 0 200 -75 200 -215zM325 481c0 68 -35 100 -87 100c-39 0 -87 -31 -87 -100c0 -68 40 -100 87 -100s87 32 87 100z" />
    <glyph glyph-name="colon" unicode=":" horiz-adv-x="249" 
d="M184 219h-119v113h119v-113zM184 0h-119v112h119v-112z" />
    <glyph glyph-name="semicolon" unicode=";" horiz-adv-x="249" 
d="M184 220h-119v112h119v-112zM184 -23l-119 -85v221h119v-136z" />
    <glyph glyph-name="less" unicode="&#x3c;" horiz-adv-x="581" 
d="M539 -20l-495 227v84l495 227v-107l-365 -162l365 -162v-107z" />
    <glyph glyph-name="equal" unicode="=" horiz-adv-x="579" 
d="M541 295h-495v97h495v-97zM541 107h-495v96h495v-96z" />
    <glyph glyph-name="greater" unicode="&#x3e;" horiz-adv-x="593" 
d="M541 207l-495 -227v107l365 162l-365 162v107l495 -227v-84z" />
    <glyph glyph-name="question" unicode="?" horiz-adv-x="462" 
d="M413 507c0 -47 -13 -76 -31 -103c-7 -11 -14 -20 -22 -31c-11 -14 -58 -70 -63 -85c-17 -23 -18 -47 -18 -78v-39h-118v49c0 43 1 74 25 109c3 13 52 71 62 89c19 27 46 55 46 90c0 45 -39 73 -71 73c-56 0 -77 -39 -77 -103h-119v30c0 108 90 190 191 190
c49 0 96 -17 131 -48c39 -35 64 -83 64 -143zM279 0h-118v112h118v-112z" />
    <glyph glyph-name="at" unicode="@" horiz-adv-x="806" 
d="M745 291c0 -68 -56 -141 -133 -141h-141v31l-2 -1c-17 -23 -45 -34 -84 -34c-84 0 -143 48 -143 125c0 68 46 119 134 119h95v22c0 27 -15 50 -68 50c-39 0 -65 -11 -86 -34l-62 60c37 45 88 65 145 65c94 0 168 -31 168 -134v-174h10c16 0 38 2 44 12c15 3 21 20 21 40
v207c0 63 -44 105 -119 105h-224c-75 0 -118 -42 -118 -105v-301c0 -64 43 -109 118 -109h319v-94h-316c-132 0 -222 83 -222 206v295c0 123 89 206 222 206h221c132 0 221 -83 221 -206v-210zM471 293v17h-81c-43 0 -56 -16 -56 -35c0 -17 13 -39 62 -39c55 0 75 8 75 57z
" />
    <glyph glyph-name="A" unicode="A" horiz-adv-x="602" 
d="M607 0h-132l-53 150h-242l-53 -150h-131l255 693h101zM385 261l-83 250l-2 -1l-83 -249h168z" />
    <glyph glyph-name="B" unicode="B" horiz-adv-x="602" 
d="M568 201c0 -123 -92 -201 -200 -201h-297v693h274c139 0 212 -79 212 -191c0 -55 -19 -106 -87 -143c-1 0 0 -1 2 -3c64 -24 96 -92 96 -155zM433 495c0 47 -31 86 -99 86h-139v-171h139c68 0 99 38 99 85zM443 207c0 48 -29 91 -100 91h-148v-181h148
c69 0 100 43 100 90z" />
    <glyph glyph-name="C" unicode="C" horiz-adv-x="551" 
d="M150 345c0 139 9 152 33 184c19 24 51 45 96 45c60 0 107 -40 122 -97h130c-24 127 -119 220 -252 220c-93 0 -182 -49 -222 -137c-31 -69 -31 -126 -31 -215s0 -146 31 -215c40 -88 129 -137 222 -137c133 0 228 93 252 220h-130c-15 -57 -62 -97 -122 -97
c-45 0 -77 21 -96 45c-24 32 -33 45 -33 184z" />
    <glyph glyph-name="D" unicode="D" horiz-adv-x="621" 
d="M574 425v-155c0 -51 -5 -91 -22 -130c-40 -88 -136 -140 -230 -140h-251v693h248c97 0 193 -52 233 -140c16 -37 21 -80 22 -128zM451 345c0 138 -9 154 -33 183c-20 25 -54 47 -99 47h-124v-458h127c45 0 77 21 95 45c25 33 34 44 34 183z" />
    <glyph glyph-name="E" unicode="E" horiz-adv-x="551" 
d="M527 0h-456v693h456v-118h-332v-170h283v-112h-283v-176h332v-117z" />
    <glyph glyph-name="F" unicode="F" horiz-adv-x="533" 
d="M527 575h-332v-177h283v-112h-283v-286h-124v693h456v-118z" />
    <glyph glyph-name="G" unicode="G" horiz-adv-x="602" 
d="M301 698c134 0 228 -94 252 -220h-130c-15 59 -62 97 -122 97c-45 0 -77 -21 -96 -45c-25 -33 -33 -46 -33 -185s9 -152 33 -184c19 -24 51 -45 96 -45c73 0 129 62 129 133v21h-139v115h263v-142c0 -59 -20 -110 -52 -153c-45 -60 -113 -97 -201 -97
c-93 0 -190 53 -230 141c-16 36 -21 79 -22 127c-1 13 -1 27 -1 41v87c0 14 0 28 1 41c1 48 6 91 22 128c40 88 137 140 230 140z" />
    <glyph glyph-name="H" unicode="H" horiz-adv-x="638" 
d="M568 0h-125v293h-248v-293h-124v693h124v-288h248v288h125v-693z" />
    <glyph glyph-name="I" unicode="I" horiz-adv-x="266" 
d="M195 0h-124v693h124v-693z" />
    <glyph glyph-name="J" unicode="J" horiz-adv-x="479" 
d="M416 219c0 -140 -113 -225 -228 -225c-77 0 -137 33 -185 90l92 83c27 -31 58 -50 90 -50c47 0 106 28 106 112v464h125v-474z" />
    <glyph glyph-name="K" unicode="K" horiz-adv-x="621" 
d="M630 0h-147l-183 314l-105 -122v-192h-124v693h124v-315l3 1l263 314h150l-227 -277z" />
    <glyph glyph-name="L" unicode="L" horiz-adv-x="551" 
d="M527 0h-456v693h124v-576h332v-117z" />
    <glyph glyph-name="M" unicode="M" horiz-adv-x="743" 
d="M682 0h-124v380l-3 -1l-129 -283h-99l-130 284l-2 -1v-379h-124v693h116l191 -423l189 423h115v-693z" />
    <glyph glyph-name="N" unicode="N" horiz-adv-x="673" 
d="M605 0h-114l-294 452l-2 -1v-451h-124v693h114l294 -453l1 2v451h125v-693z" />
    <glyph glyph-name="O" unicode="O" horiz-adv-x="586" 
d="M293 116c45 0 77 21 96 45c24 32 32 46 32 184c0 139 -8 153 -32 185c-19 24 -51 45 -96 45s-77 -21 -96 -45c-24 -32 -32 -46 -32 -185c0 -138 8 -152 32 -184c19 -24 51 -45 96 -45zM293 -7c-94 0 -190 53 -230 141c-17 39 -22 78 -22 129v167c0 48 6 91 22 128
c40 88 136 140 230 140s190 -52 230 -140c16 -37 22 -80 22 -128v-167c0 -51 -5 -90 -22 -129c-40 -88 -136 -141 -230 -141z" />
    <glyph glyph-name="P" unicode="P" horiz-adv-x="574" 
d="M565 475c0 -53 -21 -108 -62 -149c-39 -39 -91 -64 -162 -64h-146v-262h-124v693h257c89 0 167 -34 209 -106c18 -31 28 -69 28 -112zM440 477c0 67 -42 98 -106 98h-139v-196h142c28 0 51 8 68 23c23 19 35 44 35 75z" />
    <glyph glyph-name="Q" unicode="Q" horiz-adv-x="602" 
d="M624 66l-75 -86l-86 69c-47 -36 -105 -56 -162 -56c-93 0 -190 53 -230 141c-16 36 -21 79 -22 127v-1c-1 0 -1 35 -1 76c0 33 0 69 1 94c1 48 6 91 22 128c40 88 137 140 230 140c94 0 190 -52 230 -140c16 -37 21 -80 22 -128c1 -25 1 -68 1 -104v-61
c-1 -49 -6 -90 -21 -127zM430 345c0 139 -8 153 -32 185c-19 24 -52 45 -97 45s-77 -21 -96 -45c-25 -33 -33 -46 -33 -185s9 -152 33 -184c19 -24 51 -45 96 -45c23 0 41 6 57 15l-83 66l75 85l74 -58c4 27 6 61 6 121z" />
    <glyph glyph-name="R" unicode="R" horiz-adv-x="602" 
d="M597 0h-142l-145 286h-115v-286h-124v693h276c76 0 138 -24 182 -88c21 -31 35 -68 35 -111c0 -44 -12 -84 -36 -119c-23 -32 -53 -56 -92 -72zM445 494c0 21 -5 38 -14 51c-19 27 -50 36 -85 36h-151v-183h145c36 0 63 12 82 32c15 17 23 38 23 64z" />
    <glyph glyph-name="S" unicode="S" horiz-adv-x="568" 
d="M531 200c0 -132 -100 -206 -249 -206c-103 0 -191 30 -275 102l82 92c59 -47 123 -71 194 -71c83 0 124 36 124 83c0 35 -18 58 -49 71c-27 12 -68 14 -100 19c-67 9 -125 26 -168 77c-28 34 -42 76 -42 125c0 121 88 206 232 206c87 0 161 -29 236 -77l-70 -101
c-57 36 -112 55 -171 55c-60 0 -103 -29 -103 -85c0 -62 89 -68 135 -82c40 -11 81 -19 110 -32c77 -35 114 -103 114 -176z" />
    <glyph glyph-name="T" unicode="T" 
d="M497 581h-186v-581h-125v581h-186v112h497v-112z" />
    <glyph glyph-name="U" unicode="U" horiz-adv-x="621" 
d="M563 238c0 -147 -112 -244 -252 -244c-141 0 -253 101 -253 253v446h125v-435c0 -87 56 -141 128 -141s127 45 127 132v444h125v-455z" />
    <glyph glyph-name="V" unicode="V" horiz-adv-x="551" 
d="M555 693l-232 -693h-95l-232 693h132l146 -477l3 1l146 476h132z" />
    <glyph glyph-name="W" unicode="W" horiz-adv-x="814" 
d="M807 693l-175 -693h-102l-122 453l-2 -1l-121 -452h-103l-175 693h131l99 -439l2 1l123 438h90l123 -439l2 1l99 438h131z" />
    <glyph glyph-name="X" unicode="X" horiz-adv-x="532" 
d="M550 0h-141l-143 239l-143 -239h-142l215 355l-201 338h141l130 -223l129 223h142l-201 -338z" />
    <glyph glyph-name="Y" unicode="Y" 
d="M519 693l-211 -409v-284h-119v284l-211 409h133l138 -285l137 285h133z" />
    <glyph glyph-name="Z" unicode="Z" horiz-adv-x="515" 
d="M486 0h-456v107l300 474h-288v112h444v-100l-301 -476h301v-117z" />
    <glyph glyph-name="bracketleft" unicode="[" horiz-adv-x="285" 
d="M266 -98h-198v794h198v-84h-91v-627h91v-83z" />
    <glyph glyph-name="backslash" unicode="\" horiz-adv-x="338" 
d="M335 -1h-97l-235 699h97z" />
    <glyph glyph-name="bracketright" unicode="]" horiz-adv-x="285" 
d="M217 -98h-198v83h91v627h-91v84h198v-794z" />
    <glyph glyph-name="asciicircum" unicode="^" horiz-adv-x="593" 
d="M550 301h-105l-149 279l-149 -279h-105l216 392h76z" />
    <glyph glyph-name="underscore" unicode="_" horiz-adv-x="500" 
d="M500 -150h-500v81h500v-81z" />
    <glyph glyph-name="quoteleft" unicode="&#x2018;" horiz-adv-x="249" 
d="M184 454h-119v183l119 86v-269z" />
    <glyph glyph-name="a" unicode="a" 
d="M441 0h-119v38c0 -1 -1 -1 -3 -1c-19 -24 -58 -43 -109 -43c-45 0 -83 10 -115 31c-40 27 -65 70 -65 126c0 83 59 147 168 147h124v35c0 35 -19 62 -88 62c-49 0 -86 -9 -109 -36l-73 77c44 51 106 69 177 69c63 0 115 -10 153 -38c37 -26 59 -66 59 -129v-338zM322 178
v25h-106c-55 0 -73 -20 -73 -47c0 -24 18 -51 81 -51c39 0 66 4 82 20c12 12 16 29 16 53z" />
    <glyph glyph-name="b" unicode="b" horiz-adv-x="515" 
d="M472 261v-19c0 -113 -28 -248 -178 -248c-43 0 -83 18 -114 49v-43h-119v693h119v-238c31 31 70 50 114 50c152 0 178 -136 178 -244zM350 250c0 63 -5 137 -85 137s-85 -78 -85 -137c0 -57 5 -139 85 -139c83 0 85 78 85 139z" />
    <glyph glyph-name="c" unicode="c" horiz-adv-x="444" 
d="M428 71c-48 -48 -104 -77 -173 -77c-117 0 -230 74 -230 255s113 256 230 256c68 0 123 -27 170 -74l-76 -89c-27 31 -57 46 -90 46c-72 0 -115 -39 -115 -139s43 -137 115 -137c33 0 63 16 90 47z" />
    <glyph glyph-name="d" unicode="d" horiz-adv-x="515" 
d="M463 0h-119v43c-32 -29 -71 -49 -114 -49c-159 0 -179 151 -179 267c0 108 27 244 179 244c44 0 83 -19 114 -50v238h119v-693zM344 250c0 59 -5 137 -85 137c-81 0 -86 -74 -86 -137c0 -61 4 -139 86 -139c80 0 85 82 85 139z" />
    <glyph glyph-name="e" unicode="e" 
d="M459 211h-301c0 -27 6 -44 17 -61c19 -29 51 -44 87 -44c33 0 71 13 104 44l75 -82c-56 -55 -114 -74 -177 -74c-104 0 -226 50 -226 254c0 192 111 257 211 257c112 0 210 -82 210 -222v-72zM339 299c-4 63 -43 95 -90 95c-48 0 -87 -32 -91 -95h181z" />
    <glyph glyph-name="f" unicode="f" horiz-adv-x="285" 
d="M294 398h-98v-398h-118v398h-53v101h53v53c0 96 62 141 142 141h74v-108h-56c-31 0 -42 -18 -42 -47v-39h98v-101z" />
    <glyph glyph-name="g" unicode="g" horiz-adv-x="515" 
d="M221 506c44 0 84 -18 115 -49v43h118v-478c0 -151 -105 -221 -221 -221c-60 0 -120 23 -171 71l77 84c33 -25 65 -38 96 -38c55 0 96 41 101 93v33c-31 -31 -71 -49 -115 -49c-152 0 -180 144 -180 254c0 131 31 257 180 257zM336 250c0 57 -5 138 -85 138
c-82 0 -86 -78 -86 -138c0 -64 5 -138 86 -138c80 0 85 78 85 138z" />
    <glyph glyph-name="h" unicode="h" horiz-adv-x="533" 
d="M470 0h-119v295c0 60 -36 92 -84 92c-49 0 -86 -32 -86 -92v-295h-119v693h119v-237c0 1 1 1 3 1c28 31 69 48 114 48c81 0 172 -61 172 -177v-328z" />
    <glyph glyph-name="i" unicode="i" horiz-adv-x="249" 
d="M184 580h-119v113h119v-113zM184 0h-119v499h119v-499z" />
    <glyph glyph-name="j" unicode="j" horiz-adv-x="266" 
d="M193 580h-118v113h118v-113zM193 -49c0 -85 -64 -144 -152 -144h-48v109h29c39 0 53 29 53 58v525h118v-548z" />
    <glyph glyph-name="k" unicode="k" horiz-adv-x="515" 
d="M517 0h-133l-140 215l-63 -72v-143h-119v693h119v-385l3 1l170 190h145l-178 -198z" />
    <glyph glyph-name="l" unicode="l" horiz-adv-x="266" 
d="M251 0h-54c-75 0 -135 33 -135 126v567h119v-541c0 -35 24 -43 43 -43h27v-109z" />
    <glyph glyph-name="m" unicode="m" horiz-adv-x="833" 
d="M765 0h-119v296c0 60 -36 92 -84 92c-49 0 -86 -32 -86 -92v-296h-119v296c0 60 -36 92 -85 92s-85 -32 -85 -92v-296h-119v500h119v-48c31 36 71 53 117 53c67 0 104 -24 136 -63c39 44 89 63 153 63c81 0 172 -61 172 -176v-329z" />
    <glyph glyph-name="n" unicode="n" horiz-adv-x="533" 
d="M470 0h-119v296c0 60 -36 92 -84 92c-49 0 -86 -32 -86 -92v-296h-119v500h119c0 -31 0 -46 1 -46c29 33 70 51 116 51c81 0 172 -61 172 -176v-329z" />
    <glyph glyph-name="o" unicode="o" 
d="M459 250c0 -88 -10 -135 -39 -172c-42 -56 -99 -84 -171 -84c-73 0 -133 28 -175 87c-26 38 -36 84 -36 169c0 78 6 143 68 201c30 29 74 54 143 54c68 0 114 -24 143 -52c63 -58 67 -125 67 -203zM340 249c0 57 -4 78 -13 95c-16 29 -43 44 -78 44
c-36 0 -62 -14 -77 -42c-12 -23 -15 -49 -15 -96c0 -35 0 -76 20 -104c15 -23 39 -34 72 -34c25 0 45 8 60 20c31 26 31 77 31 117z" />
    <glyph glyph-name="p" unicode="p" horiz-adv-x="515" 
d="M475 239c0 -110 -27 -244 -179 -244c-44 0 -83 19 -114 50v-238h-119v693h119v-43c31 31 71 49 114 49c160 0 179 -151 179 -267zM353 250c0 60 -4 138 -86 138c-80 0 -85 -81 -85 -138c0 -59 5 -138 85 -138c81 0 86 74 86 138z" />
    <glyph glyph-name="q" unicode="q" horiz-adv-x="515" 
d="M464 -193h-119v238c-31 -31 -70 -50 -114 -50c-152 0 -179 140 -179 250c0 131 28 261 179 261c44 0 83 -18 114 -49v43h119v-693zM345 250c0 57 -5 138 -84 138c-83 0 -86 -78 -86 -138c0 -64 5 -138 86 -138c78 0 84 79 84 138z" />
    <glyph glyph-name="r" unicode="r" horiz-adv-x="391" 
d="M406 467l-75 -107c-31 23 -43 28 -66 28c-43 0 -84 -26 -84 -90v-298h-119v500h119c0 -32 0 -48 1 -48c30 40 70 53 116 53c39 0 69 -11 108 -38z" />
    <glyph glyph-name="s" unicode="s" horiz-adv-x="478" 
d="M448 152c0 -104 -97 -158 -212 -158c-77 0 -152 18 -224 81l72 86c49 -47 97 -59 160 -59c47 0 83 19 83 51c0 28 -24 41 -64 46c-36 5 -71 5 -106 13c-65 16 -113 56 -113 135c0 106 86 158 191 158c84 0 144 -17 201 -61l-64 -90c-47 32 -86 41 -137 41
c-57 0 -73 -23 -73 -48s51 -38 86 -41c21 -1 40 -3 59 -6c20 -3 38 -7 55 -14c51 -19 86 -55 86 -134z" />
    <glyph glyph-name="t" unicode="t" horiz-adv-x="285" 
d="M187 645v-146h72v-101h-72v-239c0 -35 12 -49 39 -49h31v-110h-61c-73 0 -128 45 -128 128v270h-52v101h52v146h119z" />
    <glyph glyph-name="u" unicode="u" horiz-adv-x="533" 
d="M470 0h-118v46c-2 0 -3 0 -3 -1c-29 -33 -70 -50 -114 -50c-81 0 -173 61 -173 177v328h119v-295c0 -60 37 -93 85 -93c49 0 86 33 86 93v295h118v-500z" />
    <glyph glyph-name="v" unicode="v" horiz-adv-x="450" 
d="M458 500l-186 -500h-95l-185 500h126l106 -308l2 1l106 307h126z" />
    <glyph glyph-name="w" unicode="w" horiz-adv-x="709" 
d="M712 500l-162 -500h-101l-94 309l-2 -1l-93 -308h-101l-162 500h126l85 -305l2 1l97 304h96l96 -305l2 1l85 304h126z" />
    <glyph glyph-name="x" unicode="x" horiz-adv-x="484" 
d="M481 0h-142l-97 150l-98 -150h-142l172 255l-165 245h142l91 -146l90 146h143l-166 -245z" />
    <glyph glyph-name="y" unicode="y" horiz-adv-x="444" 
d="M456 500l-214 -592c-28 -79 -83 -101 -146 -101h-43v104h32c31 0 47 17 58 48l23 70l-178 471h126l107 -313l2 1l107 312h126z" />
    <glyph glyph-name="z" unicode="z" horiz-adv-x="444" 
d="M413 0h-382v101l231 293h-218v106h369v-95l-233 -294h233v-111z" />
    <glyph glyph-name="braceleft" unicode="{" horiz-adv-x="285" 
d="M13 255c51 -1 74 -41 74 -101v-135c0 -72 48 -115 105 -115h82v81h-38c-35 0 -41 38 -41 70v121c0 73 -43 104 -65 118c22 16 65 62 65 127v121c0 32 11 69 41 69h38v82h-82c-57 0 -105 -44 -105 -116v-133c0 -63 -23 -105 -74 -106v-83z" />
    <glyph glyph-name="bar" unicode="|" horiz-adv-x="232" 
d="M164 -236h-96v965h96v-965z" />
    <glyph glyph-name="braceright" unicode="}" horiz-adv-x="285" 
d="M273 255c-51 -1 -74 -41 -74 -101v-135c0 -72 -48 -115 -105 -115h-82v81h38c35 0 41 38 41 70v121c0 73 43 104 65 118c-22 16 -65 62 -65 127v121c0 32 -11 69 -41 69h-38v82h82c57 0 105 -44 105 -116v-133c0 -63 23 -105 74 -106v-83z" />
    <glyph glyph-name="asciitilde" unicode="~" horiz-adv-x="593" 
d="M530 263c-20 -37 -44 -70 -85 -86c-15 -6 -30 -8 -45 -8c-47 0 -93 24 -136 42c-27 11 -51 23 -70 23c-31 0 -49 -26 -76 -65l-55 66c23 47 63 94 132 94c43 0 80 -21 121 -37c28 -10 59 -27 85 -27c7 0 14 1 20 4c17 9 31 26 55 61z" />
    <glyph glyph-name="sterling" unicode="&#xa3;" horiz-adv-x="504" 
d="M521 574l-111 -38c-24 31 -43 45 -80 45c-51 0 -88 -39 -88 -87v-108h100v-84h-99v-190h234v-112h-442v112h94v190h-79v84h79v110c0 56 21 105 58 142c39 37 90 59 151 59c90 0 140 -45 183 -123z" />
    <glyph glyph-name="yen" unicode="&#xa5;" horiz-adv-x="478" 
d="M504 693l-156 -308h91v-78h-131l-11 -23v-55h142v-78h-142v-151h-116v151h-142v78h142v55l-12 23h-130v78h90l-155 308h130l135 -285l135 285h130z" />
    <glyph glyph-name="section" unicode="&#xa7;" horiz-adv-x="478" 
d="M425 313c0 -71 -10 -130 -66 -165c37 -21 60 -63 60 -111c0 -109 -85 -181 -185 -181c-90 0 -172 70 -172 193h107c3 -53 27 -83 72 -83c39 0 65 25 65 65c0 29 -10 46 -89 75c-6 6 -35 8 -38 14c-81 31 -109 82 -109 182c0 77 24 141 67 168c-37 15 -63 56 -63 103
c0 94 73 162 165 162c91 0 169 -54 169 -183h-107c0 51 -22 79 -62 79c-41 0 -58 -28 -58 -51c0 -39 31 -49 85 -67l18 -6c85 -27 141 -64 141 -194zM239 403c-47 0 -62 -47 -62 -94c0 -40 7 -96 66 -96c27 0 47 10 58 23c4 5 8 12 11 22c3 16 4 49 4 63c0 24 -3 46 -14 59
c-8 11 -32 23 -63 23z" />
    <glyph glyph-name="quotesingle" unicode="'" horiz-adv-x="249" 
d="M172 504h-95v189h95v-189z" />
    <glyph glyph-name="quotedblleft" unicode="&#x201c;" horiz-adv-x="359" 
d="M317 454h-119v193l119 86v-279zM154 454h-118v193l118 86v-279z" />
    <glyph glyph-name="guillemotleft" unicode="&#xab;" horiz-adv-x="505" 
d="M459 55l-221 217l221 216v-126l-93 -90l93 -90v-127zM260 55l-220 217l220 216v-126l-92 -90l92 -90v-127z" />
    <glyph glyph-name="endash" unicode="&#x2013;" horiz-adv-x="500" 
d="M500 215h-500v114h500v-114z" />
    <glyph glyph-name="dagger" unicode="&#x2020;" horiz-adv-x="478" 
d="M458 368h-162v-543h-113v543h-163v95h163v230h113v-230h162v-95z" />
    <glyph glyph-name="bullet" unicode="&#x2022;" 
d="M249 525c100 0 180 -80 180 -179s-80 -179 -180 -179s-181 80 -181 179s81 179 181 179z" />
    <glyph glyph-name="quotedblright" unicode="&#x201d;" horiz-adv-x="351" 
d="M317 530l-119 -86v279h119v-193zM154 530l-118 -86v279h118v-193z" />
    <glyph glyph-name="ellipsis" unicode="&#x2026;" horiz-adv-x="947" 
d="M845 0h-119v114h119v-114zM537 0h-119v114h119v-114zM229 0h-119v114h119v-114z" />
    <glyph glyph-name="perthousand" unicode="&#x2030;" horiz-adv-x="974" 
d="M931 147c0 -53 -6 -81 -24 -106c-26 -34 -61 -51 -106 -51s-81 18 -107 55c-16 23 -23 51 -23 102c0 44 3 86 42 122c19 17 45 33 88 33s69 -15 88 -32c39 -37 42 -79 42 -123zM301 546c0 -52 -5 -80 -24 -104c-26 -35 -61 -52 -105 -52c-47 0 -83 18 -108 54
c-17 24 -22 51 -22 102c0 45 2 87 41 123c19 17 46 33 89 33s69 -16 88 -33c39 -36 41 -78 41 -123zM540 693l-330 -694h-95l331 694h94zM619 147c0 -53 -5 -81 -24 -105c-26 -35 -61 -52 -105 -52c-45 0 -81 18 -107 55c-16 23 -23 51 -23 102c0 44 2 86 41 122
c19 17 46 33 89 33s69 -15 88 -32c39 -37 41 -79 41 -123zM845 142v4c0 33 -2 43 -6 51c-8 14 -21 21 -38 21c-18 0 -31 -7 -38 -22c-5 -11 -6 -25 -6 -49v-15c0 -14 1 -28 9 -40c7 -11 19 -17 35 -17c12 0 22 3 30 10c14 14 14 38 14 57zM216 542v3c0 33 -2 43 -7 52
c-7 13 -20 20 -37 20c-18 0 -31 -7 -38 -21c-7 -12 -7 -26 -7 -50v-15c0 -14 1 -28 9 -39c7 -12 19 -18 36 -18c13 0 23 4 29 11c15 14 15 38 15 57zM534 142v4c0 33 -2 43 -7 51c-7 14 -19 21 -37 21s-31 -7 -38 -22c-7 -11 -7 -25 -7 -49v-15c0 -14 1 -28 9 -40
c8 -11 20 -17 36 -17c12 0 22 3 30 10c14 14 14 38 14 57z" />
    <glyph glyph-name="grave" unicode="`" horiz-adv-x="257" 
d="M223 548h-98l-149 150h149z" />
    <glyph glyph-name="dieresis" unicode="&#xa8;" horiz-adv-x="386" 
d="M348 565h-124v119h124v-119zM160 565h-124v119h124v-119z" />
    <glyph glyph-name="emdash" unicode="&#x2014;" horiz-adv-x="1000" 
d="M0 215h1000v114h-1000v-114z" />
    <glyph glyph-name="oe" unicode="&#x153;" horiz-adv-x="798" 
d="M340 249c0 -40 1 -88 -31 -117c-15 -12 -35 -20 -60 -20c-33 0 -57 11 -72 34c-20 28 -20 69 -20 104c0 47 3 73 15 96c15 28 41 42 77 42c35 0 62 -15 78 -44c15 -27 13 -64 13 -95zM459 211h301v72c0 140 -97 222 -210 222c-52 0 -108 -17 -148 -62c-4 3 -7 6 -10 10
c-31 27 -75 52 -143 52c-69 0 -113 -25 -144 -53c-61 -59 -67 -124 -67 -202c0 -85 10 -131 37 -168c41 -60 101 -88 174 -88c63 0 113 21 152 62c45 -47 107 -62 164 -62c63 0 121 19 177 74l-75 82c-33 -31 -71 -44 -104 -44c-36 0 -68 15 -87 44c-11 17 -17 34 -17 61z
M640 299h-180c3 63 42 95 90 95s86 -32 90 -95z" />
    <glyph glyph-name="logicalnot" unicode="&#xac;" horiz-adv-x="500" 
d="M389 41v174h-389v114h500v-288h-111z" />
    <glyph glyph-name="mu" unicode="&#x3bc;" horiz-adv-x="529" 
d="M470 1h-118v45c-2 0 -3 0 -3 -1c-29 -33 -70 -50 -114 -50c-19 0 -37 3 -54 10v-198h-119v693h119v-295c0 -60 37 -93 85 -93c49 0 86 33 86 93v295h118v-499z" />
    <glyph glyph-name="trademark" unicode="&#x2122;" horiz-adv-x="965" 
d="M893 282h-87v298l-2 -1l-117 -297h-58l-116 298l-2 -1v-297h-87v411h127l107 -284l107 284h128v-411zM364 611h-120v-329h-87v329h-120v82h327v-82z" />
    <glyph glyph-name="plusminus" unicode="&#xb1;" horiz-adv-x="593" 
d="M549 272h-205v-137h-96v137h-204v95h204v137h96v-137h205v-95zM549 0h-505v94h505v-94z" />
    <glyph glyph-name="brokenbar" unicode="&#xa6;" horiz-adv-x="232" 
d="M164 300h-96v429h96v-429zM164 -251h-96v429h96v-429z" />
    <glyph glyph-name="degree" unicode="&#xb0;" horiz-adv-x="402" 
d="M348 552c0 -80 -66 -146 -147 -146s-147 66 -147 146c0 81 66 146 147 146s147 -65 147 -146zM270 552c0 39 -30 69 -69 69s-69 -30 -69 -69s30 -68 69 -68s69 29 69 68z" />
    <glyph glyph-name="twosuperior" unicode="&#xb2;" horiz-adv-x="292" 
d="M271 266h-256v70l163 200c7 10 11 22 11 33c0 24 -16 46 -44 46c-26 0 -46 -19 -49 -58h-81c0 82 58 139 125 139c53 0 94 -28 116 -69c10 -18 14 -38 14 -57c0 -28 -10 -58 -26 -79c-39 -49 -78 -97 -117 -145h144v-80z" />
    <glyph glyph-name="registered" unicode="&#xae;" horiz-adv-x="784" 
d="M689 435v-177c-1 -53 -6 -93 -22 -129c-38 -84 -135 -136 -229 -136h-103c-94 0 -191 52 -229 136c-16 35 -19 77 -22 128c-1 14 -1 28 -1 88c0 86 3 186 51 254c43 61 121 99 201 99h103c93 0 192 -52 229 -135c16 -36 19 -79 22 -128zM603 345c0 147 -7 172 -40 213
c-25 31 -66 57 -125 57h-103c-59 0 -100 -26 -125 -57c-32 -40 -41 -66 -41 -213c0 -148 9 -171 41 -211c25 -31 66 -58 125 -58h103c59 0 100 27 125 58c32 41 40 63 40 211zM560 151h-92l-77 159h-55v-159h-79v395h157c44 0 82 -16 105 -51c12 -19 20 -40 20 -64
c0 -47 -24 -86 -68 -109zM464 431c0 29 -19 43 -50 43h-78v-92h75c31 0 53 18 53 49z" />
    <glyph glyph-name="threesuperior" unicode="&#xb3;" horiz-adv-x="292" 
d="M267 398c0 -82 -60 -135 -136 -135c-59 0 -115 41 -129 127h80c11 -30 26 -46 53 -46s50 20 50 52c0 34 -23 53 -51 53h-44v74h39c33 0 52 20 52 46s-22 47 -49 47c-20 0 -39 -13 -46 -48h-80c6 73 61 129 124 129c80 0 132 -61 132 -126c0 -31 -9 -61 -38 -84
c28 -22 43 -56 43 -89z" />
    <glyph glyph-name="copyright" unicode="&#xa9;" horiz-adv-x="784" 
d="M689 435v-177c-1 -53 -6 -93 -22 -129c-38 -84 -135 -136 -229 -136h-103c-94 0 -191 52 -229 136c-16 35 -19 77 -22 128c-1 14 -1 28 -1 88c0 86 3 186 51 254c43 61 121 99 201 99h103c94 0 192 -52 229 -135c16 -35 19 -79 22 -128zM603 345c0 147 -7 172 -40 213
c-25 31 -66 57 -125 57h-103c-59 0 -100 -26 -125 -57c-32 -40 -41 -66 -41 -213c0 -148 9 -171 41 -211c25 -31 66 -58 125 -58h103c59 0 100 27 125 58c32 41 40 63 40 211zM548 261c-17 -83 -73 -138 -154 -138c-59 0 -117 32 -141 87c-11 23 -13 49 -14 78
c-1 8 -1 16 -1 51c0 31 1 61 8 88c7 24 10 44 22 63c27 41 77 65 126 65c81 0 137 -54 154 -137h-82c-12 35 -37 59 -72 59c-33 0 -52 -18 -63 -39c-11 -22 -13 -41 -13 -99c0 -57 2 -76 13 -99c11 -21 30 -39 63 -39c35 0 60 24 72 60h82z" />
    <glyph glyph-name="nbspace" unicode="&#xa0;" horiz-adv-x="249" 
 />
    <glyph glyph-name="pi" unicode="&#x3c0;" horiz-adv-x="533" 
d="M470 0h-119v393h-170v-393h-119v500h408v-500z" />
    <glyph glyph-name=".null" horiz-adv-x="0" 
 />
    <glyph glyph-name="dieresistonos" unicode="&#x385;" horiz-adv-x="463" 
d="M483 565h-124v118h124v-118zM360 698l-149 -150h-98l98 150h149zM115 565h-125v118h125v-118z" />
    <glyph glyph-name="tonos" unicode="&#x384;" horiz-adv-x="257" 
d="M289 698l-149 -150h-98l98 150h149z" />
    <glyph glyph-name="sfthyphen" unicode="&#xad;" horiz-adv-x="408" 
d="M48 198h313v110h-313v-110z" />
    <glyph glyph-name="Gamma" unicode="&#x393;" horiz-adv-x="533" 
d="M527 575h-332v-575h-124v693h456v-118z" />
    <glyph glyph-name="Delta" unicode="&#x394;" horiz-adv-x="602" 
d="M607 0h-611l255 693h101zM435 111l-133 400l-2 -1l-134 -399h269z" />
    <glyph glyph-name="Theta" unicode="&#x398;" horiz-adv-x="586" 
d="M419 405c-3 83 -10 101 -30 125s-52 45 -97 45s-78 -21 -97 -45c-19 -25 -28 -41 -31 -125h255zM420 293h-256c3 -90 9 -105 31 -132c19 -24 52 -45 97 -45s77 21 96 45c22 27 29 42 32 132zM292 -7c-94 0 -190 53 -230 141c-17 39 -22 78 -22 129v167c0 48 6 91 22 128
c40 88 136 140 230 140s190 -52 230 -140c16 -37 22 -80 22 -128v-167c0 -51 -5 -90 -22 -129c-40 -88 -136 -141 -230 -141z" />
    <glyph glyph-name="Lambda" unicode="&#x39b;" horiz-adv-x="602" 
d="M607 0h-132c-69 203 -87 246 -173 511c0 -1 0 -1 -1 -1h-1c-89 -263 -100 -308 -173 -510h-131l255 693h101z" />
    <glyph glyph-name="Xi" unicode="&#x39e;" horiz-adv-x="575" 
d="M518 575h-465v118h465v-118zM467 293h-364v112h364v-112zM518 0h-465v117h465v-117z" />
    <glyph glyph-name="Pi" unicode="&#x3a0;" horiz-adv-x="638" 
d="M568 0h-125v581h-248v-581h-124v693h497v-693z" />
    <glyph glyph-name="Sigma" unicode="&#x3a3;" horiz-adv-x="515" 
d="M486 0h-456v98l152 258l-153 247v90h443v-112h-287l146 -225l-146 -239h301v-117z" />
    <glyph glyph-name="Iotadieresis" unicode="&#x3aa;" horiz-adv-x="266" 
d="M288 738h-124v118h124v-118zM100 738h-124v118h124v-118zM195 0h-124v692h124v-692z" />
    <glyph glyph-name="Alpha" unicode="&#x391;" horiz-adv-x="602" 
d="M607 0h-132l-53 150h-242l-53 -150h-131l255 693h101zM385 261l-83 250l-2 -1l-83 -249h168z" />
    <glyph glyph-name="Beta" unicode="&#x392;" horiz-adv-x="602" 
d="M568 201c0 -123 -92 -201 -200 -201h-297v693h274c139 0 212 -79 212 -191c0 -55 -19 -106 -87 -143c-1 0 0 -1 2 -3c64 -24 96 -92 96 -155zM433 495c0 47 -31 86 -99 86h-139v-171h139c68 0 99 38 99 85zM443 207c0 48 -29 91 -100 91h-148v-181h148
c69 0 100 43 100 90z" />
    <glyph glyph-name="Epsilon" unicode="&#x395;" horiz-adv-x="551" 
d="M527 0h-456v693h456v-118h-332v-170h283v-112h-283v-176h332v-117z" />
    <glyph glyph-name="Zeta" unicode="&#x396;" horiz-adv-x="515" 
d="M486 0h-456v107l300 474h-288v112h444v-100l-301 -476h301v-117z" />
    <glyph glyph-name="Eta" unicode="&#x397;" horiz-adv-x="638" 
d="M568 0h-125v293h-248v-293h-124v693h124v-288h248v288h125v-693z" />
    <glyph glyph-name="Iota" unicode="&#x399;" horiz-adv-x="266" 
d="M195 0h-124v693h124v-693z" />
    <glyph glyph-name="Kappa" unicode="&#x39a;" horiz-adv-x="621" 
d="M630 0h-147l-183 314l-105 -122v-192h-124v693h124v-315l3 1l263 314h150l-227 -277z" />
    <glyph glyph-name="Mu" unicode="&#x39c;" horiz-adv-x="743" 
d="M682 0h-124v380l-3 -1l-129 -283h-99l-130 284l-2 -1v-379h-124v693h116l191 -423l189 423h115v-693z" />
    <glyph glyph-name="Phi" unicode="&#x3a6;" horiz-adv-x="736" 
d="M430 693h-126v-33c-167 0 -264 -132 -264 -314c0 -160 88 -288 264 -293v-53h126v53c176 5 264 133 264 293c0 182 -97 314 -264 314v33zM304 541v-368c-101 11 -138 94 -138 178c0 73 14 174 138 190zM430 173v368c124 -16 138 -117 138 -190c0 -84 -37 -167 -138 -178z
" />
    <glyph glyph-name="Upsilondieresis" unicode="&#x3ab;" 
d="M399 738h-125v118h125v-118zM211 738h-125v118h125v-118zM519 692l-211 -408v-284h-119v284l-211 408h133l138 -284l137 284h133z" />
    <glyph glyph-name="Psi" unicode="&#x3a8;" horiz-adv-x="729" 
d="M670 366c0 -144 -108 -232 -244 -243v-123h-125v123c-137 8 -243 104 -243 252v318h124v-307c0 -81 51 -132 119 -139v446h125v-447c68 7 120 50 120 131v316h124v-327z" />
    <glyph glyph-name="Omega" unicode="&#x3a9;" horiz-adv-x="586" 
d="M292 575c-45 0 -79 -21 -98 -45c-24 -32 -32 -46 -32 -185c0 -110 2 -143 34 -181c13 -15 30 -27 53 -37v-127h-224v117h64c-43 39 -50 96 -51 160c-1 11 -1 22 -1 112c0 57 3 122 24 169c40 88 139 140 232 140s191 -52 231 -140c21 -47 24 -112 24 -169
c0 -90 0 -101 -1 -112c-1 -64 -8 -121 -51 -160h64v-117h-224v127c23 10 40 22 53 37c32 38 34 71 34 181c0 139 -8 153 -32 185c-19 24 -54 45 -99 45z" />
    <glyph glyph-name="alphatonos" unicode="&#x3ac;" horiz-adv-x="508" 
d="M421 698l-149 -149h-98l98 149h149zM458 0h-119v44c-31 -31 -70 -49 -114 -49c-152 0 -178 134 -178 244c0 132 28 267 178 267c44 0 83 -18 114 -49v43h119v-500zM339 250c0 57 -5 138 -84 138c-83 0 -86 -78 -86 -138c0 -64 5 -138 86 -138c78 0 84 78 84 138z" />
    <glyph glyph-name="Nu" unicode="&#x39d;" horiz-adv-x="673" 
d="M605 0h-114l-294 452l-2 -1v-451h-124v693h114l294 -453l1 2v451h125v-693z" />
    <glyph glyph-name="Omicron" unicode="&#x39f;" horiz-adv-x="586" 
d="M292 116c45 0 77 21 96 45c24 32 32 46 32 184c0 139 -8 153 -32 185c-19 24 -51 45 -96 45s-77 -21 -96 -45c-24 -32 -32 -46 -32 -185c0 -138 8 -152 32 -184c19 -24 51 -45 96 -45zM292 -7c-94 0 -190 53 -230 141c-17 39 -22 78 -22 129v167c0 48 6 91 22 128
c40 88 136 140 230 140s190 -52 230 -140c16 -37 22 -80 22 -128v-167c0 -51 -5 -90 -22 -129c-40 -88 -136 -141 -230 -141z" />
    <glyph glyph-name="Rho" unicode="&#x3a1;" horiz-adv-x="586" 
d="M565 475c0 -53 -21 -108 -62 -149c-39 -39 -91 -64 -162 -64h-146v-262h-124v693h257c89 0 167 -34 208 -106c19 -31 29 -69 29 -112zM440 477c0 67 -42 98 -106 98h-139v-196h142c28 0 51 8 68 23c23 19 35 44 35 75z" />
    <glyph glyph-name="Tau" unicode="&#x3a4;" 
d="M497 581h-186v-581h-125v581h-186v112h497v-112z" />
    <glyph glyph-name="Upsilon" unicode="&#x3a5;" 
d="M519 693l-211 -409v-284h-119v284l-211 409h133l138 -285l137 285h133z" />
    <glyph glyph-name="Chi" unicode="&#x3a7;" horiz-adv-x="532" 
d="M550 0h-141l-143 239l-143 -239h-142l215 355l-201 338h141l130 -223l129 223h142l-201 -338z" />
    <glyph glyph-name="Alphatonos" unicode="&#x386;" horiz-adv-x="602" 
d="M178 698l-149 -149h-98l98 149h149zM607 0h-132l-53 150h-242l-53 -150h-131l255 693h101zM385 261l-83 250l-2 -1l-83 -249h168z" />
    <glyph glyph-name="Epsilontonos" unicode="&#x388;" horiz-adv-x="551" 
d="M527 0h-456v693h456v-118h-332v-170h283v-112h-283v-176h332v-117zM53 698l-149 -149h-98l98 149h149z" />
    <glyph glyph-name="afii00208" unicode="&#x2015;" horiz-adv-x="1000" 
d="M1000 215h-1000v114h1000v-114z" />
    <glyph glyph-name="Etatonos" unicode="&#x389;" horiz-adv-x="638" 
d="M568 0h-125v293h-248v-293h-124v693h124v-288h248v288h125v-693zM52 698l-149 -149h-98l98 149h149z" />
    <glyph glyph-name="Iotatonos" unicode="&#x38a;" horiz-adv-x="266" 
d="M50 698l-149 -149h-98l98 149h149zM195 0h-124v693h124v-693z" />
    <glyph glyph-name="Omicrontonos" unicode="&#x38c;" horiz-adv-x="586" 
d="M83 698l-149 -149h-98l98 149h149zM292 116c45 0 77 21 96 45c24 32 32 46 32 184c0 139 -8 153 -32 185c-19 24 -51 45 -96 45s-77 -21 -96 -45c-24 -32 -32 -46 -32 -185c0 -138 8 -152 32 -184c19 -24 51 -45 96 -45zM292 -7c-94 0 -190 53 -230 141
c-17 39 -22 78 -22 129v167c0 48 6 91 22 128c40 88 136 140 230 140s190 -52 230 -140c16 -37 22 -80 22 -128v-167c0 -51 -5 -90 -22 -129c-40 -88 -136 -141 -230 -141z" />
    <glyph glyph-name="Upsilontonos" unicode="&#x38e;" 
d="M519 693l-211 -409v-284h-119v284l-211 409h133l138 -285l137 285h133zM-41 698l-150 -149h-97l97 149h150z" />
    <glyph glyph-name="epsilontonos" unicode="&#x3ad;" horiz-adv-x="449" 
d="M401 698l-150 -149h-97l97 149h150zM436 72c-51 -53 -120 -76 -192 -76c-112 0 -200 67 -200 163c0 36 29 82 70 98c-49 20 -63 61 -63 93c0 83 78 155 195 155c72 0 136 -23 187 -76l-76 -87c-31 37 -70 47 -106 47c-39 0 -79 -17 -79 -46c0 -21 20 -43 72 -43h78v-93
h-85c-43 0 -72 -21 -72 -50c0 -23 30 -47 86 -47c36 0 75 12 106 49z" />
    <glyph glyph-name="etatonos" unicode="&#x3ae;" horiz-adv-x="533" 
d="M399 698l-149 -149h-98l98 149h149zM470 0h-119v295c0 60 -36 93 -84 93c-49 0 -86 -33 -86 -93v-295h-119v500h119c0 -31 0 -47 1 -46c30 38 70 51 116 51c81 0 172 -61 172 -177v-328z" />
    <glyph glyph-name="iotatonos" unicode="&#x3af;" horiz-adv-x="266" 
d="M289 698l-149 -150h-98l98 150h149zM251 0h-54c-75 0 -135 33 -135 126v374h119v-348c0 -35 24 -43 43 -43h27v-109z" />
    <glyph glyph-name="omicrontonos" unicode="&#x3cc;" 
d="M416 698l-150 -149h-97l98 149h149zM459 250c0 -88 -10 -135 -39 -172c-42 -56 -99 -84 -171 -84c-73 0 -133 28 -175 87c-26 38 -36 84 -36 169c0 78 6 143 68 201c30 28 74 54 143 54c68 0 112 -25 142 -54c63 -58 68 -123 68 -201zM340 249c0 57 -4 78 -13 95
c-16 29 -43 44 -78 44c-36 0 -62 -14 -77 -42c-12 -23 -15 -49 -15 -96c0 -35 0 -76 20 -104c16 -23 40 -35 72 -35c25 0 45 7 60 21c31 26 31 77 31 117z" />
    <glyph glyph-name="Omegatonos" unicode="&#x38f;" horiz-adv-x="586" 
d="M292 575c-45 0 -79 -21 -98 -45c-24 -32 -32 -46 -32 -185c0 -110 2 -143 34 -181c13 -15 30 -27 53 -37v-127h-224v117h64c-43 39 -50 96 -51 160c-1 11 -1 22 -1 112c0 57 3 122 24 169c40 88 139 140 232 140s191 -52 231 -140c21 -47 24 -112 24 -169
c0 -90 0 -101 -1 -112c-1 -64 -8 -121 -51 -160h64v-117h-224v127c23 10 40 22 53 37c32 38 34 71 34 181c0 139 -8 153 -32 185c-19 24 -54 45 -99 45zM68 698l-150 -149h-97l97 149h150z" />
    <glyph glyph-name="upsilontonos" unicode="&#x3cd;" horiz-adv-x="533" 
d="M424 698l-149 -149h-97l97 149h149zM471 181c0 -112 -102 -187 -205 -187c-102 0 -204 75 -204 187v318h119v-295c0 -60 37 -93 86 -93s85 33 85 93v295h119v-318z" />
    <glyph glyph-name="alpha" unicode="&#x3b1;" horiz-adv-x="511" 
d="M457 0h-119v44c-31 -31 -70 -49 -115 -49c-152 0 -178 134 -178 244c0 116 20 267 178 267c44 0 84 -18 115 -49v43h119v-500zM338 250c0 57 -5 138 -85 138c-82 0 -86 -78 -86 -138c0 -64 5 -138 86 -138c80 0 85 78 85 138z" />
    <glyph glyph-name="beta" unicode="&#x3b2;" horiz-adv-x="518" 
d="M470 238c0 -110 -26 -244 -183 -244c-43 0 -78 19 -111 50v-44h-119v503c0 125 81 193 208 193c125 0 178 -99 178 -177c0 -47 -13 -99 -58 -123c68 -21 85 -94 85 -158zM279 342h-68v98h55c46 0 58 39 58 71c0 30 -20 82 -68 82c-64 0 -80 -43 -80 -86v-258
c0 -59 7 -137 86 -137c75 0 86 68 86 128c0 49 -4 102 -69 102z" />
    <glyph glyph-name="psi" unicode="&#x3c8;" horiz-adv-x="657" 
d="M597 193c0 -129 -111 -195 -210 -198v-187h-119v187c-101 3 -207 70 -207 198v307h119v-285c0 -71 44 -98 88 -101v406h119c0 -271 0 -406 1 -407c45 0 90 33 90 102v285h119v-307z" />
    <glyph glyph-name="delta" unicode="&#x3b4;" 
d="M460 246c0 -88 -15 -135 -43 -172c-43 -56 -99 -80 -170 -80c-73 0 -131 29 -172 87c-25 37 -36 82 -36 165c0 81 15 156 88 202c-33 27 -48 66 -48 107c0 102 101 143 184 143c61 0 108 -13 175 -50l-54 -100c-43 25 -86 43 -121 43c-42 0 -49 -23 -49 -35
c0 -33 96 -73 121 -86c109 -57 125 -111 125 -224zM340 246c0 83 -18 121 -82 144h-7c-34 0 -59 -21 -77 -47c-11 -17 -17 -37 -17 -97c0 -72 15 -135 90 -135c24 0 44 5 59 16c30 24 34 69 34 119z" />
    <glyph glyph-name="epsilon" unicode="&#x3b5;" horiz-adv-x="449" 
d="M436 72c-51 -53 -120 -76 -192 -76c-112 0 -200 67 -200 163c0 36 29 82 70 98c-49 20 -63 62 -63 93c0 82 78 156 195 156c72 0 136 -24 187 -76l-76 -88c-31 37 -70 47 -106 47c-39 0 -79 -17 -79 -46c0 -21 20 -43 72 -43h78v-93h-85c-43 0 -72 -21 -72 -50
c0 -23 30 -46 86 -46c36 0 75 11 106 48z" />
    <glyph glyph-name="phi" unicode="&#x3c6;" horiz-adv-x="621" 
d="M585 250c0 -88 -11 -133 -40 -171c-42 -57 -102 -85 -174 -85v-186h-119v187l-1 -1c-72 0 -132 28 -172 85c-28 39 -41 82 -41 171c0 77 5 145 68 203c17 16 40 30 69 41l42 -111c-19 -6 -35 -19 -46 -39c-9 -17 -14 -38 -14 -95c0 -48 4 -107 60 -126
c11 -3 20 -11 35 -11v393h121c68 0 116 -25 145 -52c63 -58 67 -126 67 -203zM466 249c0 57 -4 78 -13 95c-11 20 -28 34 -51 41c-9 3 -19 4 -31 4v-278c12 0 21 2 32 5c12 4 23 9 31 17c31 27 32 76 32 116z" />
    <glyph glyph-name="gamma" unicode="&#x3b3;" horiz-adv-x="429" 
d="M272 28l166 472h-127l-99 -288l-65 184c-21 56 -50 92 -126 111l-44 -108c46 -16 51 -26 67 -68l111 -306v-219h117v222z" />
    <glyph glyph-name="eta" unicode="&#x3b7;" horiz-adv-x="533" 
d="M470 0h-119v296c0 60 -36 92 -84 92c-49 0 -86 -32 -86 -92v-296h-119v500h119c0 -31 0 -46 1 -46c29 33 70 51 116 51c81 0 172 -61 172 -176v-329z" />
    <glyph glyph-name="iota" unicode="&#x3b9;" horiz-adv-x="266" 
d="M251 0h-54c-75 0 -135 33 -135 126v374h119v-348c0 -35 24 -43 43 -43h27v-109z" />
    <glyph glyph-name="xi" unicode="&#x3be;" horiz-adv-x="426" 
d="M385 541l52 102c-77 53 -143 54 -177 54c-107 0 -209 -71 -209 -188c0 -38 20 -94 80 -126c-75 -40 -98 -132 -98 -177c0 -104 49 -179 145 -209l69 -22c24 -7 33 -23 33 -40c0 -9 -3 -17 -6 -25l-29 -66l107 -43l48 120c9 23 13 43 13 60c0 61 -52 86 -104 105
c-21 7 -49 18 -78 29c-45 17 -75 43 -75 96c0 61 40 123 87 123h140v98h-118c-55 0 -91 32 -91 75s35 76 91 76c30 0 58 -4 120 -42z" />
    <glyph glyph-name="kappa" unicode="&#x3ba;" horiz-adv-x="511" 
d="M517 0h-132l-141 215l-63 -72v-143h-119v499h119v-191l3 1l170 190h145l-178 -198z" />
    <glyph glyph-name="lambda" unicode="&#x3bb;" horiz-adv-x="453" 
d="M457 -4c-97 0 -134 27 -161 104l-73 213l-108 -313h-123l177 473l-24 67c-8 24 -20 47 -83 47v107c97 0 154 -17 184 -103l155 -456c7 -19 20 -34 56 -37v-102z" />
    <glyph glyph-name="nu" unicode="&#x3bd;" horiz-adv-x="450" 
d="M458 500l-186 -500h-95l-185 500h126l106 -308l2 1l106 307h126z" />
    <glyph glyph-name="omicron" unicode="&#x3bf;" 
d="M459 250c0 -88 -10 -135 -39 -172c-42 -56 -99 -84 -171 -84c-73 0 -133 28 -175 87c-26 38 -36 84 -36 169c0 78 6 143 68 201c30 29 74 54 143 54c68 0 114 -24 143 -52c63 -58 67 -125 67 -203zM340 249c0 57 -4 78 -13 95c-16 29 -43 44 -78 44
c-36 0 -62 -14 -77 -42c-12 -23 -15 -49 -15 -96c0 -35 0 -76 20 -104c15 -23 39 -34 72 -34c25 0 45 8 60 20c31 26 31 77 31 117z" />
    <glyph glyph-name="omegatonos" unicode="&#x3ce;" horiz-adv-x="740" 
d="M525 698l-149 -149h-98l98 149h149zM373 63c-36 -43 -70 -68 -129 -68c-71 0 -128 29 -169 88c-26 37 -36 83 -36 168c0 77 4 144 67 202c28 27 69 50 144 53v-118c-37 -1 -62 -14 -77 -40c-12 -21 -15 -46 -15 -97v-5c0 -31 0 -69 18 -99c15 -23 30 -35 59 -35
c47 0 74 30 74 93v175h119v-175c0 -63 27 -93 75 -93c29 0 42 12 57 35c19 30 19 69 19 100v4c0 51 -3 76 -15 97c-15 26 -40 39 -77 40v118c75 -3 116 -26 144 -53c63 -58 67 -125 67 -202c0 -85 -10 -131 -36 -168c-41 -59 -92 -88 -165 -88c-55 0 -92 27 -124 68z" />
    <glyph glyph-name="rho" unicode="&#x3c1;" horiz-adv-x="508" 
d="M465 250c-3 -116 -26 -255 -179 -255c-44 0 -82 14 -114 47v-235h-119v443c0 78 4 144 65 202c29 28 73 53 141 53s111 -25 140 -52c62 -59 66 -125 66 -203zM345 249c0 57 -4 77 -13 96c-15 29 -40 43 -75 43c-34 0 -58 -14 -73 -42c-12 -23 -14 -49 -14 -96v-5
c0 -34 0 -71 19 -99c15 -23 37 -34 68 -34c25 0 45 8 58 20c29 29 30 77 30 117z" />
    <glyph glyph-name="sigma" unicode="&#x3c3;" horiz-adv-x="512" 
d="M493 398h-70c33 -35 36 -97 36 -150c0 -87 -10 -134 -39 -171c-41 -55 -98 -83 -171 -83c-75 0 -133 29 -174 87c-27 37 -37 82 -37 167c0 77 6 141 68 199c30 28 74 53 143 53h244v-102zM340 247c0 56 -2 77 -13 94c-15 28 -43 43 -78 43c-37 0 -62 -14 -77 -41
c-13 -23 -15 -50 -15 -95c0 -35 0 -75 20 -104c16 -22 40 -33 72 -33c25 0 45 8 60 20c31 27 31 75 31 116z" />
    <glyph glyph-name="tau" unicode="&#x3c4;" horiz-adv-x="339" 
d="M333 397h-110v-251c0 -23 8 -35 24 -35h47v-111h-61c-75 0 -128 45 -128 128v269h-97v103h325v-103z" />
    <glyph glyph-name="theta" unicode="&#x3b8;" 
d="M458 254v185c0 77 -2 148 -66 205c-30 28 -75 54 -143 54c-69 0 -113 -26 -143 -54c-65 -58 -69 -137 -69 -210v-179c0 -53 6 -135 33 -173c44 -63 114 -88 179 -88c72 0 132 31 173 88c35 50 36 113 36 172zM249 580c35 0 61 -13 76 -40c11 -19 13 -44 13 -129h-178
c0 85 2 110 13 129c15 27 41 40 76 40zM249 116c-35 0 -61 13 -76 40c-11 19 -13 64 -13 149h178c0 -85 -2 -130 -13 -149c-15 -27 -41 -40 -76 -40z" />
    <glyph glyph-name="omega" unicode="&#x3c9;" horiz-adv-x="740" 
d="M373 63c-36 -43 -70 -68 -129 -68c-71 0 -128 29 -169 88c-26 37 -36 83 -36 168c0 77 4 144 67 202c28 27 69 50 144 53v-118c-37 -1 -62 -14 -77 -40c-12 -21 -15 -46 -15 -97v-5c0 -31 0 -69 18 -99c15 -23 30 -35 59 -35c47 0 74 30 74 93v175h119v-175
c0 -63 27 -93 75 -93c29 0 42 12 57 35c19 30 19 69 19 100v4c0 51 -3 76 -15 97c-15 26 -40 39 -77 40v118c75 -3 116 -26 144 -53c63 -58 67 -125 67 -202c0 -85 -10 -131 -36 -168c-41 -59 -92 -88 -165 -88c-55 0 -92 27 -124 68z" />
    <glyph glyph-name="sigma1" unicode="&#x3c2;" horiz-adv-x="447" 
d="M340 75l-102 44c-59 25 -66 71 -66 129c0 100 43 139 115 139c33 0 63 -15 90 -46l76 89c-47 47 -102 74 -170 74c-117 0 -230 -75 -230 -256c0 -124 25 -190 130 -238c26 -11 29 -13 61 -26s45 -22 45 -38c0 -10 -5 -22 -13 -40l-22 -51l106 -45c23 52 58 112 58 165
c0 40 -19 75 -78 100z" />
    <glyph glyph-name="chi" unicode="&#x3c7;" horiz-adv-x="480" 
d="M477 0h-142l-97 150l-98 -150h-142l172 255l-165 245h142l91 -146l90 146h143l-166 -245z" />
    <glyph glyph-name="upsilon" unicode="&#x3c5;" horiz-adv-x="533" 
d="M471 181c0 -112 -102 -187 -205 -187c-102 0 -204 75 -204 187v319h119v-296c0 -60 37 -92 86 -92s85 32 85 92v296h119v-319z" />
    <glyph glyph-name="zeta" unicode="&#x3b6;" horiz-adv-x="404" 
d="M265 587h-199v106h361v-94c-160 -116 -270 -280 -270 -388c0 -8 1 -16 2 -24c7 -39 28 -56 65 -71c27 -11 55 -23 98 -40c45 -18 83 -48 83 -100c0 -16 -4 -34 -12 -55l-48 -119l-107 40l26 59l1 2c5 11 10 23 10 35c0 15 -8 28 -37 39l-65 24c-70 26 -128 85 -141 169
c-2 11 -2 22 -2 33c0 127 95 276 235 384z" />
    <glyph glyph-name="iotadieresis" unicode="&#x3ca;" horiz-adv-x="266" 
d="M278 566h-124v118h124v-118zM90 566h-124v118h124v-118zM251 0h-54c-75 0 -135 33 -135 126v374h119v-348c0 -35 24 -43 43 -43h27v-109z" />
    <glyph glyph-name="upsilondieresis" unicode="&#x3cb;" horiz-adv-x="533" 
d="M422 566h-125v118h125v-118zM234 566h-125v118h125v-118zM471 181c0 -112 -102 -187 -205 -187c-102 0 -204 75 -204 187v318h119v-295c0 -60 37 -93 86 -93s85 33 85 93v295h119v-318z" />
    <glyph glyph-name="iotadieresistonos" unicode="&#x390;" horiz-adv-x="266" 
d="M381 565h-124v119h124v-119zM258 698l-149 -149h-98l98 149h149zM13 565h-125v119h125v-119zM251 0h-54c-75 0 -135 33 -135 126v374h119v-348c0 -35 24 -43 43 -43h27v-109z" />
    <glyph glyph-name="upsilondieresistonos" unicode="&#x3b0;" horiz-adv-x="533" 
d="M516 565h-124v119h124v-119zM393 698l-149 -149h-98l98 149h149zM147 565h-124v119h124v-119zM471 181c0 -112 -102 -187 -205 -187c-102 0 -204 75 -204 187v318h119v-295c0 -60 37 -93 86 -93s85 33 85 93v295h119v-318z" />
    <glyph glyph-name="FL0020" unicode="&#xe000;" horiz-adv-x="987" 
 />
    <glyph glyph-name="FL0021" unicode="&#xe001;" horiz-adv-x="987" 
 />
    <glyph glyph-name="Euro" unicode="&#x20ac;" horiz-adv-x="572" 
d="M561 186l-125 18c-17 -51 -63 -88 -119 -88c-45 0 -78 21 -97 45c-16 20 -23 33 -28 74h230v79h-233c-1 3 -1 8 -1 55h234v78h-231c5 48 13 63 29 83c20 24 52 45 97 45c56 0 100 -35 119 -86l122 24c-32 107 -118 185 -241 185c-93 0 -190 -52 -230 -140
c-15 -32 -19 -68 -22 -111h-59v-78h58v-55h-58v-79h60c3 -39 8 -72 21 -101c40 -88 137 -141 230 -141c124 0 215 81 244 193z" />
    <glyph glyph-name="_203Ah" unicode="&#x203a;" horiz-adv-x="500" 
d="M153 488l221 -216l-221 -217v127l93 90l-93 90v126z" />
    <glyph glyph-name="_00A4h" unicode="&#xa4;" horiz-adv-x="556" 
d="M159 354c0 65 51 117 116 117s117 -49 117 -117c0 -66 -51 -116 -117 -116c-67 0 -116 53 -116 116zM41 523l58 -58c-20 -32 -33 -73 -33 -111c0 -39 13 -78 33 -111l-57 -56l64 -67l58 57c31 -21 71 -33 112 -33c42 0 80 11 112 33l58 -58l64 69l-58 55
c20 33 34 72 34 111c0 38 -13 79 -33 111l56 55l-64 68c-17 -17 -41 -39 -57 -57c-32 20 -72 33 -112 33s-80 -13 -112 -33l-58 58z" />
    <glyph glyph-name="_00B6h" unicode="&#xb6;" horiz-adv-x="460" 
d="M247 -78h-65v477c-95 5 -172 77 -172 164c0 89 80 171 177 171h261v-74h-68v-738h-65v738h-68v-738z" />
    <glyph glyph-name="periodcentered" unicode="&#xb7;" horiz-adv-x="249" 
d="M199 286c0 -41 -33 -75 -74 -75c-43 0 -75 34 -75 75s32 75 75 75c41 0 74 -34 74 -75z" />
    <glyph glyph-name="_00B9h" unicode="&#xb9;" horiz-adv-x="292" 
d="M189 271h-82v331c-19 -14 -43 -31 -60 -44v91l68 49h74v-427z" />
    <glyph glyph-name="_00BAh" unicode="&#xba;" horiz-adv-x="303" 
d="M283 539c0 -52 -8 -84 -25 -107c-25 -34 -63 -53 -106 -53c-44 0 -83 19 -108 55c-16 23 -24 54 -24 105c0 47 4 88 42 125c20 17 47 33 90 33c40 0 70 -17 89 -33c36 -36 42 -80 42 -125zM201 538c0 34 -2 45 -7 55c-8 16 -22 24 -42 24s-35 -9 -42 -23
c-6 -12 -8 -29 -8 -55c0 -21 0 -45 11 -60c7 -13 21 -19 39 -19c14 0 25 5 33 12c16 13 16 42 16 66z" />
    <glyph glyph-name="guillemotright" unicode="&#xbb;" horiz-adv-x="500" 
d="M243 488l221 -216l-221 -217v127l93 90l-93 90v126zM44 488l221 -216l-221 -217v127l93 90l-93 90v126z" />
    <glyph glyph-name="onehalf" unicode="&#xbd;" horiz-adv-x="743" 
d="M561 427c84 0 145 -57 145 -126c0 -29 -6 -55 -33 -83l-126 -131h159v-87h-289v81l171 181c13 13 19 26 19 39c0 23 -16 39 -43 39s-41 -16 -45 -59h-99c1 92 61 146 141 146zM592 709l-424 -725h-95l424 725h95zM211 271h-100v317l-68 -42v102l75 47h93v-424z" />
    <glyph glyph-name="Adieresis" unicode="&#xc4;" horiz-adv-x="602" 
d="M457 738h-124v118h124v-118zM269 738h-124v118h124v-118zM607 0h-132l-53 150h-242l-53 -150h-131l255 693h101zM385 262l-83 249l-2 -1l-83 -248h168z" />
    <glyph glyph-name="onesuperior" unicode="&#xc5;" horiz-adv-x="602" 
d="M410 818c0 -59 -49 -108 -109 -108s-109 49 -109 108c0 60 49 108 109 108s109 -48 109 -108zM607 0h-132l-53 149h-242l-53 -149h-131l255 692h101zM348 818c0 27 -20 46 -47 46s-47 -19 -47 -46c0 -25 20 -46 47 -46s47 21 47 46zM385 261l-83 250l-2 -1l-83 -249h168z
" />
    <glyph glyph-name="_00C7h" unicode="&#xc7;" horiz-adv-x="551" 
d="M71 134c34 -76 110 -124 190 -137l-26 -100l57 -21c14 10 26 14 36 14c16 0 30 -9 30 -30s-22 -31 -57 -31c-26 0 -61 9 -91 25l-27 -62c44 -26 80 -37 123 -37c73 0 129 40 129 102c0 50 -32 96 -93 96c-8 0 -18 0 -25 -1l9 42c120 11 203 102 227 220h-130
c-19 -56 -62 -98 -122 -98c-45 0 -77 21 -96 45c-25 33 -33 46 -33 184s8 155 33 185c19 24 51 45 96 45c60 0 103 -41 122 -97h130c-24 127 -119 220 -252 220c-93 0 -190 -52 -230 -140c-16 -37 -21 -80 -22 -128c-1 -13 -1 -27 -1 -41v-87c0 -13 0 -27 1 -40
c1 -49 6 -92 22 -128z" />
    <glyph glyph-name="Eacute" unicode="&#xc9;" horiz-adv-x="551" 
d="M527 0h-456v692h456v-117h-332v-170h283v-112h-283v-176h332v-117zM448 811l-199 -67l-88 44l154 89z" />
    <glyph glyph-name="_00CBh" unicode="&#xcb;" horiz-adv-x="551" 
d="M527 0h-456v693h456v-118h-332v-170h283v-112h-283v-176h332v-117zM453 747h-125v118h125v-118zM265 747h-125v118h125v-118z" />
    <glyph glyph-name="_00CCh" unicode="&#xcc;" horiz-adv-x="266" 
d="M195 0h-124v693h124v-693zM222 783l-88 -41l-198 72l136 63z" />
    <glyph glyph-name="_00CDh" unicode="&#xcd;" horiz-adv-x="266" 
d="M195 0h-124v693h124v-693zM328 811l-199 -67l-88 44l154 89z" />
    <glyph glyph-name="_00CEh" unicode="&#xce;" horiz-adv-x="266" 
d="M195 0h-124v693h124v-693zM348 736h-122l-94 55l-93 -55h-124l157 131h120z" />
    <glyph glyph-name="_00CFh" unicode="&#xcf;" horiz-adv-x="266" 
d="M195 0h-124v693h124v-693zM293 747h-125v118h125v-118zM105 747h-125v118h125v-118z" />
    <glyph glyph-name="Odieresis" unicode="&#xd6;" horiz-adv-x="602" 
d="M452 738h-124v118h124v-118zM264 738h-124v118h124v-118zM292 116c45 0 77 21 96 45c24 32 32 46 32 184c0 139 -8 153 -32 185c-19 24 -51 45 -96 45s-77 -21 -96 -45c-24 -32 -32 -46 -32 -185c0 -138 8 -152 32 -184c19 -24 51 -45 96 -45zM292 -7
c-94 0 -190 53 -230 141c-17 39 -22 78 -22 129v167c0 48 6 91 22 128c40 88 136 140 230 140s190 -52 230 -140c16 -37 22 -80 22 -128v-167c0 -51 -5 -90 -22 -129c-40 -88 -136 -141 -230 -141z" />
    <glyph glyph-name="Udieresis" unicode="&#xdc;" horiz-adv-x="621" 
d="M467 738h-124v118h124v-118zM279 738h-124v118h124v-118zM563 238c0 -147 -112 -244 -252 -244c-141 0 -253 101 -253 253v445h125v-434c0 -87 56 -141 128 -141s127 45 127 132v443h125v-454z" />
    <glyph glyph-name="germandbls" unicode="&#xdf;" horiz-adv-x="521" 
d="M472 238c0 -112 -31 -239 -208 -239h-29v116h26c55 0 88 36 89 104v25c0 28 -4 56 -20 74c-12 13 -30 20 -53 20h-42v106h35c45 0 62 35 62 67c0 29 -25 78 -73 78c-61 0 -80 -39 -80 -82v-507h-119v503c0 125 87 193 209 193c117 0 182 -99 182 -177
c0 -47 -18 -98 -63 -123c68 -19 84 -96 84 -158z" />
    <glyph glyph-name="agrave" unicode="&#xe0;" 
d="M320 549h-98l-149 149h149zM441 0h-119v38c0 -1 -1 -1 -3 -1c-19 -24 -58 -43 -109 -43c-45 0 -83 10 -115 31c-40 27 -65 70 -65 126c0 83 59 147 168 147h124v35c0 35 -19 62 -88 62c-49 0 -86 -9 -109 -36l-73 77c44 51 106 69 177 69c63 0 115 -10 153 -38
c37 -26 59 -66 59 -129v-338zM322 178v25h-106c-55 0 -73 -20 -73 -47c0 -24 18 -51 81 -51c39 0 66 4 82 20c12 12 16 29 16 53z" />
    <glyph glyph-name="acircumflex" unicode="&#xe2;" 
d="M425 548h-112l-64 78l-63 -78h-114l117 151h119zM441 0h-119v38c0 -1 -1 -1 -3 -1c-19 -24 -58 -43 -109 -43c-45 0 -83 10 -115 31c-40 27 -65 70 -65 126c0 83 59 147 168 147h124v35c0 35 -19 62 -88 62c-49 0 -86 -9 -109 -36l-73 77c44 51 106 69 177 69
c63 0 115 -10 153 -38c37 -26 59 -66 59 -129v-338zM322 178v25h-106c-55 0 -73 -20 -73 -47c0 -24 18 -51 81 -51c39 0 66 4 82 20c12 12 16 29 16 53z" />
    <glyph glyph-name="adieresis" unicode="&#xe4;" 
d="M407 566h-125v118h125v-118zM219 566h-125v118h125v-118zM441 0h-119v38c0 -1 -1 -1 -3 -1c-19 -24 -58 -43 -109 -43c-45 0 -83 10 -115 31c-40 27 -65 70 -65 126c0 83 59 147 168 147h124v35c0 35 -19 62 -88 62c-49 0 -86 -9 -109 -36l-73 77c44 51 106 69 177 69
c63 0 115 -10 153 -38c37 -26 59 -66 59 -129v-338zM322 178v25h-106c-55 0 -73 -20 -73 -47c0 -24 18 -51 81 -51c39 0 66 4 82 20c12 12 16 29 16 53z" />
    <glyph glyph-name="ccedilla" unicode="&#xe7;" horiz-adv-x="438" 
d="M25 249c0 -154 82 -230 180 -250l-27 -78l57 -21c14 10 26 14 36 14c16 0 30 -9 30 -30s-22 -31 -57 -31c-26 0 -61 9 -91 25l-27 -62c44 -26 80 -37 123 -37c73 0 129 40 129 102c0 50 -32 96 -93 96c-8 0 -14 0 -21 -1l6 19c63 5 114 32 158 76l-79 88
c-27 -31 -57 -47 -90 -47c-72 0 -115 37 -115 137c0 101 43 139 115 139c33 0 63 -15 90 -46l76 89c-47 47 -102 74 -170 74c-117 0 -230 -75 -230 -256z" />
    <glyph glyph-name="egrave" unicode="&#xe8;" 
d="M330 549h-98l-149 149h149zM459 211h-301c0 -27 6 -44 17 -61c19 -29 51 -44 87 -44c33 0 71 13 104 44l75 -82c-56 -55 -114 -74 -177 -74c-104 0 -226 50 -226 254c0 192 111 257 211 257c112 0 210 -82 210 -222v-72zM339 299c-4 63 -43 95 -90 95
c-48 0 -87 -32 -91 -95h181z" />
    <glyph glyph-name="eacute" unicode="&#xe9;" 
d="M415 698l-149 -149h-98l98 149h149zM459 211h-301c0 -27 6 -44 17 -61c19 -29 51 -44 87 -44c33 0 71 13 104 44l75 -82c-56 -55 -114 -74 -177 -74c-104 0 -226 50 -226 254c0 192 111 257 211 257c112 0 210 -82 210 -222v-72zM339 299c-4 63 -43 95 -90 95
c-48 0 -87 -32 -91 -95h181z" />
    <glyph glyph-name="ecircumflex" unicode="&#xea;" 
d="M425 548h-112l-64 78l-63 -78h-114l117 151h119zM459 211h-301c0 -27 6 -44 17 -61c19 -29 51 -44 87 -44c33 0 71 13 104 44l75 -82c-56 -55 -114 -74 -177 -74c-104 0 -226 50 -226 254c0 192 111 257 211 257c112 0 210 -82 210 -222v-72zM339 299
c-4 63 -43 95 -90 95c-48 0 -87 -32 -91 -95h181z" />
    <glyph glyph-name="edieresis" unicode="&#xeb;" 
d="M407 566h-124v118h124v-118zM219 566h-124v118h124v-118zM459 211h-301c0 -27 6 -44 17 -61c19 -29 51 -44 87 -44c33 0 71 13 104 44l75 -82c-56 -55 -114 -74 -177 -74c-104 0 -226 50 -226 254c0 192 111 257 211 257c112 0 210 -82 210 -222v-72zM339 299
c-4 63 -43 95 -90 95c-48 0 -87 -32 -91 -95h181z" />
    <glyph glyph-name="icircumflex" unicode="&#xee;" horiz-adv-x="249" 
d="M301 548h-113l-64 78l-62 -78h-115l117 151h120zM184 0h-119v499h119v-499z" />
    <glyph glyph-name="idieresis" unicode="&#xef;" horiz-adv-x="249" 
d="M278 566h-124v118h124v-118zM90 566h-124v118h124v-118zM184 0h-119v499h119v-499z" />
    <glyph glyph-name="ocircumflex" unicode="&#xf4;" 
d="M427 548h-112l-64 78l-63 -78h-114l117 151h119zM459 250c0 -88 -10 -135 -39 -172c-42 -56 -99 -84 -171 -84c-73 0 -133 28 -175 87c-26 38 -36 84 -36 169c0 78 6 143 68 201c30 28 74 54 143 54c68 0 112 -25 142 -54c63 -58 68 -123 68 -201zM340 249
c0 57 -4 78 -13 95c-16 29 -43 44 -78 44c-36 0 -62 -14 -77 -42c-12 -23 -15 -49 -15 -96c0 -35 0 -76 20 -104c16 -23 40 -35 72 -35c25 0 45 7 60 21c31 26 31 77 31 117z" />
    <glyph glyph-name="odieresis" unicode="&#xf6;" 
d="M406 566h-124v118h124v-118zM218 566h-124v118h124v-118zM459 250c0 -88 -10 -135 -39 -172c-42 -56 -99 -84 -171 -84c-73 0 -133 28 -175 87c-26 38 -36 84 -36 169c0 78 6 143 68 201c30 28 74 54 143 54c68 0 112 -25 142 -54c63 -58 68 -123 68 -201zM340 249
c0 57 -4 78 -13 95c-16 29 -43 44 -78 44c-36 0 -62 -14 -77 -42c-12 -23 -15 -49 -15 -96c0 -35 0 -76 20 -104c16 -23 40 -35 72 -35c25 0 45 7 60 21c31 26 31 77 31 117z" />
    <glyph glyph-name="divide" unicode="&#xf7;" horiz-adv-x="593" 
d="M371 445c0 -41 -32 -74 -75 -74c-41 0 -74 33 -74 74s33 74 74 74c43 0 75 -33 75 -74zM549 202h-505v95h505v-95zM296 128c43 0 75 -33 75 -74s-32 -74 -75 -74c-41 0 -74 33 -74 74s33 74 74 74z" />
    <glyph glyph-name="ugrave" unicode="&#xf9;" horiz-adv-x="533" 
d="M336 549h-97l-149 149h149zM470 0h-118v46c-2 0 -3 0 -3 -1c-29 -33 -70 -50 -114 -50c-81 0 -173 61 -173 176v329h119v-296c0 -60 37 -92 85 -92c49 0 86 32 86 92v296h118v-500z" />
    <glyph glyph-name="ucircumflex" unicode="&#xfb;" horiz-adv-x="533" 
d="M441 548h-112l-64 75l-63 -75h-114l117 151h120zM470 0h-118v46c-2 0 -3 0 -3 -1c-29 -33 -70 -50 -114 -50c-81 0 -173 61 -173 176v329h119v-296c0 -60 37 -92 85 -92c49 0 86 32 86 92v296h118v-500z" />
    <glyph glyph-name="udieresis" unicode="&#xfc;" horiz-adv-x="533" 
d="M419 566h-125v118h125v-118zM231 566h-125v118h125v-118zM470 0h-118v46c-2 0 -3 0 -3 -1c-29 -33 -70 -50 -114 -50c-81 0 -173 61 -173 176v329h119v-296c0 -60 37 -92 85 -92c49 0 86 32 86 92v296h118v-500z" />
    </font>
</defs>
</svg>
